<svg xmlns="http://www.w3.org/2000/svg" xmlns:se="http://svg-edit.googlecode.com" xmlns:xlink="http://www.w3.org/1999/xlink" xmlns:dc="http://purl.org/dc/elements/1.1/" xmlns:cc="http://creativecommons.org/ns#" xmlns:rdf="http://www.w3.org/1999/02/22-rdf-syntax-ns#" xmlns:inkscape="http://www.inkscape.org/namespaces/inkscape" width="777" height="480">
                                    <title>my vector image</title>
                                    <!-- Created with Vector Paint - http://www.vectorpaint.yaks.com/ https://chrome.google.com/webstore/detail/hnbpdiengicdefcjecjbnjnoifekhgdo -->
                                    <rect id="backgroundrect" width="100%" height="100%" x="0" y="0" fill="#FFFFFF" stroke="none"/>
                                <g class="currentLayer"><title>Layer 1</title><path fill="#d50bd5" fill-opacity="1" stroke="#222222" stroke-opacity="1" stroke-width="2" stroke-dasharray="none" stroke-linejoin="round" stroke-linecap="butt" stroke-dashoffset="" fill-rule="nonzero" opacity="1" marker-start="" marker-mid="" marker-end="" d="M-10.721898195116427,-12.870097098068726 C-10.721898195116427,-18.439372954086792 -9.678238031237033,-22.95043939085437 -8.389768716661838,-22.95043939085437 C-7.101299402086642,-22.95043939085437 -6.057638284532931,-18.439372954086792 -6.057638284532931,-12.870097098068726 C-6.057638284532931,-7.300789770798218 -7.101299402086642,-2.789695439056885 -8.389768716661838,-2.789695439056885 C-9.678238031237033,-2.789695439056885 -10.721898195116427,-7.300789770798218 -10.721898195116427,-12.870097098068726 z" id="svg_5" class="" transform="rotate(92.07501220703125 -8.389768600463867,-12.870067596435547) "/><path fill="#d50bd5" fill-opacity="1" stroke="#222222" stroke-opacity="1" stroke-width="2" stroke-dasharray="none" stroke-linejoin="round" stroke-linecap="butt" stroke-dashoffset="" fill-rule="nonzero" opacity="1" marker-start="" marker-mid="" marker-end="" d="M8.89640187115456,-14.657498768678863 C8.89640187115456,-19.315160206667144 10.0298299679258,-23.087884358278473 11.429127682159198,-23.087884358278473 C12.828426350066913,-23.087884358278473 13.961854923675311,-19.315160206667144 13.961854923675311,-14.657498768678863 C13.961854923675311,-9.999776295534332 12.828426350066913,-6.227053097597319 11.429127682159198,-6.227053097597319 C10.0298299679258,-6.227053097597319 8.89640187115456,-9.999776295534332 8.89640187115456,-14.657498768678863 z" id="svg_7" class="" transform="rotate(87.97423553466797 11.429128646850588,-14.657468795776369) "/></g></svg>