<?xml version="1.0"?>
<svg version="1.1" xmlns="http://www.w3.org/2000/svg" xmlns:xlink="http://www.w3.org/1999/xlink" width="777" height="480">
    <desc iVinci="yes" version="4.5" gridStep="20" showGrid="no" snapToGrid="no" codePlatform="0"/>
    <g id="Layer1" opacity="1">
        <g id="Shape1">
            <desc shapeID="1" type="0" basicInfo-basicType="0" basicInfo-roundedRectRadius="12" basicInfo-polygonSides="6" basicInfo-starPoints="5" bounding="rect(-47.3218,-22.525,94.6436,45.05)" text="" font-familyName="Helvetica" font-pixelSize="20" font-bold="0" font-underline="0" font-alignment="1" strokeStyle="0" markerStart="0" markerEnd="0" shadowEnabled="0" shadowOffsetX="0" shadowOffsetY="2" shadowBlur="4" shadowOpacity="160" blurEnabled="0" blurRadius="4" transform="matrix(0.581382,0,0,0.535135,-0.105286,-35.5539)" pers-center="0,0" pers-size="0,0" pers-start="0,0" pers-end="0,0" locked="0" mesh="" flag=""/>
            <path id="shapePath1" d="M-27.5491,-28.8513 C-28.0211,-25.741 -25.9976,-24.9283 -22.8981,-25.1054 C-17.5816,-32.0439 -11.5055,-39.5486 0.357204,-40.6243 C10.6357,-36.1283 18.2301,-28.2555 25.3566,-23.5 C33.3967,-34.2545 15.7256,-42.0593 7.91516,-47.5811 C-8.92207,-48.2202 -24.0935,-37.2687 -27.5491,-28.8513 Z" style="stroke:#000000;stroke-opacity:1;stroke-width:2;stroke-linejoin:round;stroke-miterlimit:2;stroke-linecap:butt;fill-rule:evenodd;fill:#e89e1d;fill-opacity:1;"/>
        </g>
        <g id="Shape2">
            <desc shapeID="2" type="0" basicInfo-basicType="0" basicInfo-roundedRectRadius="12" basicInfo-polygonSides="6" basicInfo-starPoints="5" bounding="rect(-53.7482,-81.5,107.496,163)" text="" font-familyName="Helvetica" font-pixelSize="20" font-bold="0" font-underline="0" font-alignment="1" strokeStyle="0" markerStart="0" markerEnd="0" shadowEnabled="0" shadowOffsetX="0" shadowOffsetY="2" shadowBlur="4" shadowOpacity="160" blurEnabled="0" blurRadius="4" transform="matrix(0.581382,0,0,0.513795,3.63089,-80.6257)" pers-center="0,0" pers-size="0,0" pers-start="0,0" pers-end="0,0" locked="0" mesh="" flag=""/>
            <path id="shapePath2" d="M-17.2188,-41.3203 C-31.9571,-53.8989 -31.7379,-87.7966 -11.9864,-93.2137 C-10.2578,-95.8765 -5.4826,-97.3301 -4.42842,-100.407 C-1.69941,-108.867 -13.7457,-109.405 -18.963,-110.683 C-19.8572,-114.436 -20.3576,-118.334 -20.1257,-122.5 C-2.92936,-120.065 17.95,-116.282 33.3614,-121.986 C32.9301,-116.81 33.9756,-112.938 33.9428,-108.114 C26.1676,-103.957 14.0322,-107.109 15.9199,-96.2964 C21.7939,-91.7379 27.5722,-88.3788 32.1986,-81.3964 C40.1393,-65.427 28.565,-48.7211 21.7338,-38.7514 " style="stroke:#000000;stroke-opacity:1;stroke-width:2;stroke-linejoin:round;stroke-miterlimit:2;stroke-linecap:butt;fill-rule:evenodd;fill:#e89e1d;fill-opacity:1;"/>
        </g>
        <g id="Shape3">
            <desc shapeID="3" type="0" basicInfo-basicType="4" basicInfo-roundedRectRadius="12" basicInfo-polygonSides="6" basicInfo-starPoints="5" bounding="rect(-5,-4.5,10,9)" text="" font-familyName="Helvetica" font-pixelSize="20" font-bold="0" font-underline="0" font-alignment="1" strokeStyle="0" markerStart="0" markerEnd="0" shadowEnabled="0" shadowOffsetX="0" shadowOffsetY="2" shadowBlur="4" shadowOpacity="160" blurEnabled="0" blurRadius="4" transform="matrix(1.27904,0,0,1.18622,-8.07281,-50.8053)" pers-center="0,0" pers-size="0,0" pers-start="0,0" pers-end="0,0" locked="0" mesh="" flag=""/>
            <path id="shapePath3" d="M-14.468,-50.8053 C-14.468,-53.7533 -11.6048,-56.1433 -8.07281,-56.1433 C-4.54084,-56.1433 -1.67762,-53.7533 -1.67762,-50.8053 C-1.67762,-47.8572 -4.54084,-45.4673 -8.07281,-45.4673 C-11.6048,-45.4673 -14.468,-47.8572 -14.468,-50.8053 Z" style="stroke:#000000;stroke-opacity:1;stroke-width:2;stroke-linejoin:round;stroke-miterlimit:2;stroke-linecap:butt;fill-rule:evenodd;fill:#1620e8;fill-opacity:1;"/>
        </g>
    </g>
</svg>
