<?xml version="1.0"?>
<svg version="1.1" xmlns="http://www.w3.org/2000/svg" xmlns:xlink="http://www.w3.org/1999/xlink" width="777" height="480">
    <desc iVinci="yes" version="4.5" gridStep="20" showGrid="no" snapToGrid="no" codePlatform="0"/>
    <g id="Layer1" opacity="1">
        <g id="Shape1">
            <desc shapeID="1" type="0" basicInfo-basicType="0" basicInfo-roundedRectRadius="12" basicInfo-polygonSides="6" basicInfo-starPoints="5" bounding="rect(-43.25,-33,86.5,66)" text="" font-familyName="Helvetica" font-pixelSize="20" font-bold="0" font-underline="0" font-alignment="1" strokeStyle="0" markerStart="0" markerEnd="0" shadowEnabled="0" shadowOffsetX="0" shadowOffsetY="2" shadowBlur="4" shadowOpacity="160" blurEnabled="0" blurRadius="4" transform="matrix(1,0,0,1,0,-16)" pers-center="0,0" pers-size="0,0" pers-start="0,0" pers-end="0,0" locked="0" mesh="" flag=""/>
            <path id="shapePath1" d="M-43.25,-15.5 C-43.25,-34 -23.25,-49 -0.25,-49 C23.75,-49 43.25,-34 43.25,-15.5 C43.25,-14 43.25,-13 43.25,-12 C43.25,-11 43.25,-10 43.25,-9 L43.25,-1 C43.25,5.5 38.25,11 31.25,11 C31.25,11 28.75,11 24.75,11 C17.75,14.5 9.25,17 -0.25,17 C-8.75,17 -17.25,14.5 -24.75,11 L-30.75,11 C-37.25,11 -42.75,5.5 -42.75,-1 L-42.75,-9 C-42.75,-9.5 -42.75,-10 -42.75,-10.5 C-42.75,-12 -43.25,-14 -43.25,-15.5 Z" style="stroke:#000000;stroke-opacity:1;stroke-width:1;stroke-linejoin:miter;stroke-miterlimit:2;stroke-linecap:round;fill-rule:evenodd;fill:#343434;fill-opacity:1;"/>
        </g>
        <g id="Shape2">
            <desc shapeID="2" type="0" basicInfo-basicType="0" basicInfo-roundedRectRadius="12" basicInfo-polygonSides="6" basicInfo-starPoints="5" bounding="rect(-32.25,-11.75,64.5,23.5)" text="" font-familyName="Helvetica" font-pixelSize="20" font-bold="0" font-underline="0" font-alignment="1" strokeStyle="0" markerStart="0" markerEnd="0" shadowEnabled="0" shadowOffsetX="0" shadowOffsetY="2" shadowBlur="4" shadowOpacity="160" blurEnabled="0" blurRadius="4" transform="matrix(1,0,0,1,0,-16)" pers-center="0,0" pers-size="0,0" pers-start="0,0" pers-end="0,0" locked="0" mesh="" flag=""/>
            <path id="shapePath2" d="M-32.25,-15.75 C-32.25,-22.25 -26.75,-27.75 -20.25,-27.75 L20.25,-27.75 C26.75,-27.75 32.25,-22.25 32.25,-15.75 C32.25,-9.75 26.75,-4.25 20.25,-4.25 L-20.25,-4.25 C-26.75,-4.25 -32.25,-9.75 -32.25,-15.75 Z" style="stroke:#000000;stroke-opacity:1;stroke-width:1;stroke-linejoin:miter;stroke-miterlimit:2;stroke-linecap:round;fill-rule:evenodd;fill:#d80c0f;fill-opacity:1;"/>
        </g>
    </g>
</svg>
