<?xml version="1.0"?>
<svg version="1.1" xmlns="http://www.w3.org/2000/svg" xmlns:xlink="http://www.w3.org/1999/xlink" width="777" height="480">
    <desc iVinci="yes" version="4.5" gridStep="20" showGrid="no" snapToGrid="no" codePlatform="0"/>
    <g id="Layer1" opacity="1">
        <g id="Shape1">
            <desc shapeID="1" type="0" basicInfo-basicType="4" basicInfo-roundedRectRadius="12" basicInfo-polygonSides="6" basicInfo-starPoints="5" bounding="rect(-3,-6,6,12)" text="" font-familyName="" font-pixelSize="20" font-bold="0" font-underline="0" font-alignment="1" strokeStyle="0" markerStart="0" markerEnd="0" shadowEnabled="0" shadowOffsetX="0" shadowOffsetY="2" shadowBlur="4" shadowOpacity="160" blurEnabled="0" blurRadius="4" transform="matrix(1,0,0,1,-9,2)" pers-center="0,0" pers-size="0,0" pers-start="0,0" pers-end="0,0" locked="0" mesh="" flag=""/>
            <path id="shapePath1" d="M-12,2 C-12,-1.31371 -10.6568,-4 -9,-4 C-7.34315,-4 -6,-1.31371 -6,2 C-6,5.31371 -7.34315,8 -9,8 C-10.6568,8 -12,5.31371 -12,2 Z" style="stroke:#222222;stroke-opacity:1;stroke-width:2;stroke-linejoin:round;stroke-miterlimit:2;stroke-linecap:butt;fill-rule:evenodd;fill:#385cd5;fill-opacity:1;"/>
        </g>
        <g id="Shape2">
            <desc shapeID="2" type="0" basicInfo-basicType="4" basicInfo-roundedRectRadius="12" basicInfo-polygonSides="6" basicInfo-starPoints="5" bounding="rect(-2,-6.5,4,13)" text="" font-familyName="Helvetica" font-pixelSize="20" font-bold="0" font-underline="0" font-alignment="1" strokeStyle="0" markerStart="0" markerEnd="0" shadowEnabled="0" shadowOffsetX="0" shadowOffsetY="2" shadowBlur="4" shadowOpacity="160" blurEnabled="0" blurRadius="4" transform="matrix(1,0,0,1,7.5,1.5)" pers-center="0,0" pers-size="0,0" pers-start="0,0" pers-end="0,0" locked="0" mesh="" flag=""/>
            <path id="shapePath2" d="M5.5,1.5 C5.5,-2.0899 6.3954,-5 7.5,-5 C8.6046,-5 9.5,-2.0899 9.5,1.5 C9.5,5.08985 8.6046,8 7.5,8 C6.3954,8 5.5,5.08985 5.5,1.5 Z" style="stroke:#222222;stroke-opacity:1;stroke-width:2;stroke-linejoin:round;stroke-miterlimit:2;stroke-linecap:butt;fill-rule:evenodd;fill:#1a49d5;fill-opacity:1;"/>
        </g>
    </g>
</svg>
